 <svg  version="1.0" xmlns="http://www.w3.org/2000/svg"  width="300.000000pt" height="226.000000pt" viewBox="0 0 300.000000 226.000000"  preserveAspectRatio="xMidYMid meet">  <g transform="translate(0.000000,226.000000) scale(0.100000,-0.100000)" fill="#1447e1" stroke="none"> <path d="M1464 2180 c-70 -22 -102 -80 -69 -126 36 -53 172 -73 245 -36 72 36 78 107 12 145 -38 22 -141 31 -188 17z m156 -48 c22 -10 35 -24 35 -36 0 -28 -44 -56 -90 -57 -73 -3 -92 1 -118 21 -23 18 -25 24 -15 45 20 45 123 60 188 27z"/> <path d="M1175 2151 c-48 -12 -91 -38 -119 -71 -77 -92 43 -158 171 -95 51 26 74 50 87 92 16 49 -66 93 -139 74z m69 -41 c36 -13 33 -44 -8 -75 -92 -70 -208 -35 -129 39 42 39 94 53 137 36z"/> <path d="M1820 2153 c-79 -32 -58 -117 41 -167 94 -47 189 -29 189 35 0 41 -25 75 -75 105 -42 24 -126 39 -155 27z m111 -47 c49 -20 82 -59 74 -85 -5 -17 -15 -21 -51 -21 -68 0 -134 42 -134 86 0 36 52 45 111 20z"/> <path d="M1450 1918 c-159 -81 -91 -288 94 -288 105 0 181 65 181 155 0 62 -28 105 -88 134 -58 28 -130 27 -187 -1z m166 -33 c104 -42 91 -166 -21 -208 -49 -18 -81 -15 -141 14 -46 23 -70 112 -41 150 18 24 64 51 100 59 34 8 53 5 103 -15z"/> <path d="M1055 1891 c-156 -70 -147 -264 13 -300 159 -35 300 135 213 257 -41 58 -148 79 -226 43z m186 -59 c22 -25 29 -42 29 -74 0 -35 -6 -47 -40 -79 -94 -90 -233 -63 -246 48 -10 82 67 146 170 140 52 -3 63 -7 87 -35z"/> <path d="M1895 1886 c-98 -44 -119 -160 -43 -233 40 -38 76 -53 129 -53 90 0 150 51 157 132 3 43 0 59 -20 88 -45 67 -150 98 -223 66z m140 -42 c49 -23 68 -58 62 -112 -6 -56 -29 -79 -91 -91 -57 -11 -103 4 -134 44 -44 55 -36 111 22 157 27 22 97 23 141 2z"/> <path d="M2213 1844 c-7 -3 -17 -20 -23 -39 -14 -44 0 -98 40 -153 100 -139 221 -58 144 96 -38 76 -107 117 -161 96z m87 -60 c53 -45 78 -133 43 -152 -52 -30 -152 116 -113 163 18 21 34 19 70 -11z"/> <path d="M793 1820 c-96 -43 -150 -209 -78 -242 70 -32 185 80 185 180 0 70 -40 93 -107 62z m65 -63 c9 -78 -96 -178 -131 -125 -28 43 50 162 102 156 20 -2 27 -9 29 -31z"/> <path d="M1503 1540 c-151 -34 -194 -260 -68 -356 55 -41 138 -46 199 -10 53 31 96 107 96 171 0 120 -117 220 -227 195z m151 -94 c109 -134 -52 -336 -187 -233 -48 36 -67 75 -67 132 0 81 50 144 123 155 54 8 94 -9 131 -54z"/> <path d="M1964 1540 c-81 -18 -135 -97 -135 -195 0 -113 60 -186 160 -193 68 -5 113 21 148 83 83 148 -26 339 -173 305z m89 -52 c46 -24 63 -55 73 -126 19 -143 -129 -233 -219 -133 -60 67 -59 167 2 232 33 33 44 39 80 39 23 0 52 -5 64 -12z"/> <path d="M1025 1521 c-157 -72 -152 -299 7 -366 92 -38 184 2 229 100 60 130 -34 286 -171 285 -14 0 -43 -9 -65 -19z m145 -43 c116 -79 83 -277 -48 -295 -56 -8 -108 12 -140 55 -23 30 -27 45 -27 101 0 73 11 96 66 137 43 32 104 32 149 2z"/> <path d="M685 1467 c-72 -72 -72 -202 0 -274 36 -36 61 -41 105 -18 93 48 93 262 0 310 -44 23 -69 18 -105 -18z m89 -17 c25 0 50 -62 48 -122 -3 -110 -75 -160 -129 -89 -17 22 -27 94 -19 135 8 41 51 90 72 82 9 -3 21 -6 28 -6z"/> <path d="M2304 1490 c-77 -32 -108 -187 -55 -274 34 -54 95 -71 140 -40 53 37 78 164 47 237 -26 61 -86 97 -132 77z m82 -69 c29 -43 35 -110 14 -158 -48 -110 -140 -59 -140 78 0 45 4 55 33 84 39 39 66 38 93 -4z"/> <path d="M2293 1061 c-72 -52 -109 -175 -65 -214 52 -47 145 7 187 107 47 112 -27 176 -122 107z m90 -33 c25 -40 -51 -158 -102 -158 -55 0 -42 88 21 146 41 37 64 40 81 12z"/> <path d="M676 1058 c-35 -50 -7 -148 58 -205 46 -41 79 -50 110 -30 57 38 32 154 -49 226 -44 39 -96 43 -119 9z m108 -46 c21 -20 56 -85 56 -105 0 -8 -8 -24 -17 -35 -14 -15 -23 -18 -39 -12 -50 20 -98 120 -80 166 7 19 50 12 80 -14z"/> <path d="M1025 1051 c-50 -23 -70 -46 -89 -98 -39 -111 64 -225 189 -211 96 11 161 87 153 178 -12 117 -139 184 -253 131z m167 -52 c24 -19 41 -44 48 -70 10 -35 8 -44 -11 -76 -43 -70 -130 -94 -196 -53 -81 49 -90 134 -21 196 30 28 44 32 98 33 37 1 53 -5 82 -30z"/> <path d="M1498 1060 c-125 -38 -176 -170 -103 -266 72 -94 221 -96 298 -5 46 55 49 142 7 201 -39 54 -140 89 -202 70z m148 -73 c90 -82 28 -227 -98 -227 -115 0 -185 113 -125 201 30 45 60 59 130 59 51 0 61 -4 93 -33z"/> <path d="M1895 1054 c-44 -23 -66 -45 -81 -81 -65 -153 117 -292 263 -202 112 69 94 241 -30 288 -41 16 -117 13 -152 -5z m165 -48 c25 -16 40 -37 50 -66 13 -39 12 -45 -6 -78 -42 -77 -121 -102 -194 -61 -76 43 -93 122 -40 182 52 60 122 68 190 23z"/> <path d="M1060 663 c-117 -43 -10 -193 138 -193 100 0 122 64 48 135 -53 51 -135 77 -186 58z m116 -54 c117 -55 76 -141 -43 -89 -60 26 -88 61 -73 90 14 27 57 26 116 -1z"/> <path d="M1915 658 c-76 -27 -133 -96 -116 -141 29 -76 207 -49 261 39 27 43 25 69 -6 93 -29 23 -88 27 -139 9z m116 -50 c29 -54 -141 -132 -181 -83 -32 39 50 104 132 105 28 0 40 -5 49 -22z"/> <path d="M1515 636 c-5 -3 -22 -7 -37 -10 -43 -10 -88 -54 -88 -86 0 -48 82 -100 158 -100 46 0 112 23 137 47 43 44 27 96 -41 131 -22 12 -113 24 -129 18z m97 -48 c22 -6 43 -19 47 -27 32 -61 -96 -106 -183 -65 -103 50 14 129 136 92z"/> <path d="M165 464 c506 -58 1008 -212 1303 -401 l54 -34 62 40 c165 104 430 213 671 276 140 37 319 76 370 79 17 2 37 6 46 10 9 4 46 8 83 9 36 1 66 6 66 11 0 4 8 6 18 4 9 -3 51 1 92 8 69 12 58 13 -145 8 -121 -2 -256 -7 -300 -10 -221 -13 -476 -58 -635 -110 -154 -51 -297 -158 -318 -238 l-9 -31 -20 45 c-69 154 -318 259 -748 314 -118 16 -517 37 -645 35 -57 -1 -50 -3 55 -15z m539 -41 c4 -4 28 -8 54 -9 53 -1 115 -9 187 -24 28 -5 75 -15 105 -21 30 -6 57 -14 60 -18 3 -4 35 -15 73 -25 37 -10 67 -22 67 -27 0 -5 8 -9 18 -10 38 -1 202 -130 202 -159 0 -4 6 -10 13 -13 6 -2 9 -8 5 -12 -5 -5 -59 17 -121 48 -62 32 -118 57 -125 57 -7 0 -12 5 -12 10 0 6 -10 10 -23 10 -13 0 -27 4 -33 9 -5 4 -54 25 -109 46 -55 20 -109 41 -120 46 -11 5 -60 18 -110 30 -49 11 -94 24 -100 27 -5 4 -14 7 -20 7 -5 0 -11 4 -12 10 -1 5 -10 12 -20 16 -14 6 -15 8 -2 8 9 1 19 -2 23 -6z m1646 -31 c0 -1 -6 -2 -12 -1 -7 1 -24 -3 -38 -8 -14 -6 -41 -13 -60 -16 -50 -8 -121 -27 -134 -35 -13 -8 -133 -50 -161 -57 -11 -2 -30 -9 -42 -15 -13 -5 -33 -14 -45 -19 -13 -5 -60 -27 -104 -49 -45 -23 -84 -38 -88 -35 -3 4 -6 1 -6 -5 0 -7 -6 -12 -13 -12 -7 0 -23 -9 -35 -20 -12 -12 -22 -18 -22 -15 0 3 -9 1 -20 -5 -16 -9 -20 -8 -20 5 0 9 7 18 15 21 8 4 13 10 10 14 -9 14 101 103 167 137 94 47 223 91 318 108 204 36 255 41 272 26 10 -9 18 -17 18 -19z"/> </g> </svg> 